<?xml version="1.0" encoding="UTF-8"?>
<svg id="Layer_2" data-name="Layer 2" xmlns="http://www.w3.org/2000/svg" viewBox="0 0 124.71 98.08">
  <defs>
    <style>
      .cls-1 {
        fill: #97d1a9;
      }

      .cls-3 {
        fill: #51717e;
      }
    </style>
  </defs>
  <g id="Layer_1-2" data-name="Layer 1">
    <path class="cls-1" d="M50.17,13.99c.07.03.14.06.21.08,15.72,6.3,6.46,34.97-6.57,25.63,1.16-1.99-.87-2.63-1.48-3.92-3-6.31-2.9-17.41,4.98-20.02,1.56-.51,2.94.58,3.07-1.69-.07-.03-.14-.06-.21-.08Z"/>
    <path class="cls-1" d="M79.83,14.07c.07.03.14.05.21.08,14.68,6.77,3.4,34.25-8.68,25.71,1.07-1.87-.9-2.77-1.48-4.3-2.32-6.11-1.02-16.69,5.82-19.38,1.63-.64,4.26-.09,4.34-2.03-.07-.03-.14-.05-.21-.08Z"/>
    <path class="cls-1" d="M27.3,33.09c.07.03.14.05.21.08,15.19,6.47,6.74,33.26-6.14,24.06.98-2.09-1.48-3.49-2.33-5.57-2.31-5.69-1.32-15.24,5.61-17.05,1.33-.35,2.73.89,2.86-1.44-.07-.03-.14-.06-.21-.08Z"/>
    <path class="cls-1" d="M103.13,33.09c.07.03.14.05.21.08,14.04,6.67,1.52,33.31-9.95,24.02,1.08-1.75-.48-2.56-.85-3.83-1.71-6.04-.41-15.54,6.25-18.11,1.72-.67,4.5-.06,4.55-2.08-.07-.03-.14-.05-.21-.08Z"/>
    <path class="cls-1" d="M94.74,73.37c-2.99-10.62-8.54-9.9-14.7-16.31-3.42-3.57-3.33-6.96-8.05-10-.47.36.13,1.08-.53,1.31-.23.08-3.78-1-4.66-1.06-3.86-.26-8.91.12-12.28,2.12-3.47,2.05-4.19,6.08-6.67,9-3.92,4.63-9.74,5.7-12.92,11.44-3.68,6.64-4.3,17.83,2.44,22.77,1.73,1.27,4.89,1.42,4.34,3.77,8.66,2.21,14.14-3.01,22.03-2.5,6.41.42,10.59,4.09,17.79,2.84,12.09-2.1,16.33-12.33,13.22-23.38ZM73.35,76.85c-1.36,2.54,3.17,9.08-2.5,10.63-2.68.73-6.27-2.79-8.26-2.92-3.01-.2-8.29,6.31-11.35.97-1.24-2.15.91-6.8.3-8.26-1.19-2.83-9.12-6.39-4.19-10.59,1.87-1.6,6.75-.95,8.26-2.03,2.14-1.54,2.62-7.16,6.35-7.71,4.17-.62,4.99,6.13,7.2,7.71,1.9,1.36,6.84-.09,9.07,2.88,2.86,3.81-3.49,6.75-4.87,9.32Z"/>
    <path class="cls-3" d="M54.32,88.69c-1.45,0-2.86-.66-4-2.63-.91-1.58-.46-3.85-.06-5.85.17-.87.43-2.19.3-2.53-.28-.66-1.24-1.56-2.17-2.43-1.76-1.65-3.76-3.53-3.7-5.83.03-1.26.69-2.46,1.97-3.55,1.28-1.1,3.36-1.31,5.36-1.51,1.13-.11,2.53-.26,2.97-.58.61-.44,1.16-1.59,1.7-2.7,1.02-2.13,2.28-4.77,5.12-5.19h0c3.43-.51,5.05,2.76,6.23,5.14.57,1.15,1.16,2.34,1.74,2.75.52.37,1.68.46,2.81.55,2.17.17,4.86.39,6.49,2.56,2.54,3.4-.62,6.3-2.7,8.22-.89.82-1.74,1.6-2.08,2.24-.31.58-.06,1.94.17,3.14.5,2.69,1.26,6.75-3.32,8.01-2.03.56-4.18-.66-6.07-1.73-.98-.55-1.99-1.12-2.54-1.16-.71-.05-1.92.62-3.09,1.26-1.45.8-3.31,1.82-5.11,1.82ZM62.11,57.98h0c-1.72.26-2.64,2.17-3.52,4.01-.68,1.42-1.32,2.76-2.37,3.51-.9.65-2.34.79-3.99.96-1.6.16-3.42.35-4.2,1.02-.81.69-1.21,1.34-1.22,1.98-.03,1.35,1.6,2.88,3.04,4.23,1.14,1.07,2.22,2.09,2.67,3.16.39.92.14,2.17-.18,3.76-.31,1.55-.69,3.49-.18,4.38,1.36,2.36,3.03,1.79,6.25.01,1.5-.83,2.92-1.6,4.25-1.52,1.04.07,2.15.7,3.44,1.43,1.54.87,3.28,1.85,4.47,1.53,2.44-.67,2.41-2.29,1.8-5.58-.32-1.7-.62-3.3.05-4.54.51-.96,1.49-1.85,2.51-2.8,2.71-2.49,3.64-3.78,2.44-5.39-1.05-1.41-3.04-1.56-4.96-1.71-1.48-.12-2.88-.23-3.87-.94-1.02-.73-1.69-2.09-2.41-3.54-1.28-2.58-2.25-4.25-4.02-3.99Z"/>
    <path class="cls-3" d="M26.62,60.19c-1.92,0-3.92-.7-5.87-2.1-4.99-3.57-7.69-11.55-6.14-18.16,1.1-4.7,4.2-7.79,8.5-8.49h0c1.19-.19,3.56.26,4.58.65h.03c.07.04.14.07.21.1,5.26,2.24,8.45,7.04,8.75,13.17.29,5.97-2.31,11.67-6.33,13.86-1.18.64-2.43.96-3.73.96ZM23.44,33.54h0c-4.67.75-6.25,4.63-6.77,6.88-1.37,5.84.97,12.85,5.31,15.95,2.6,1.86,5.14,2.2,7.35,1,3.28-1.79,5.48-6.79,5.23-11.9-.26-5.29-2.98-9.41-7.47-11.33-.05-.02-.1-.04-.15-.06h-.04c-.87-.35-2.82-.65-3.47-.55Z"/>
    <path class="cls-3" d="M78.57,98.08c-3.08,0-5.66-.81-8.17-1.59-2.21-.69-4.29-1.35-6.75-1.51-3.25-.21-6.06.6-9.03,1.46-3.94,1.14-8.02,2.32-13.19,1.01-7.03-1.79-11.68-6.51-13.1-13.28-1.71-8.18,1.86-17.61,8.68-22.93.77-.6,1.63-1.1,2.45-1.58,1.01-.59,1.96-1.15,2.8-1.89,2.3-2.03,3.62-4.11,4.9-6.12,2.63-4.13,4.91-7.71,13.97-8.12l.05,1.06-.05-1.06c3.26-.15,8.35.76,11.2,2.53l.07.04c.05.03.1.06.16.09,3.02,1.95,4.24,4.07,5.41,6.12.79,1.38,1.53,2.68,2.83,4.03,2.01,2.1,3.95,3.39,5.82,4.65,3.63,2.43,7.06,4.72,9.13,12.11,1.8,6.4,1.22,12.43-1.65,16.98-2.58,4.09-6.87,6.77-12.4,7.73-1.11.19-2.14.27-3.13.27ZM62.62,92.82c.39,0,.78.01,1.18.04,2.71.18,5.01.9,7.24,1.6,3.21,1.01,6.25,1.96,10.3,1.25,4.93-.86,8.72-3.2,10.97-6.77,2.54-4.04,3.04-9.47,1.41-15.28-1.87-6.63-4.69-8.53-8.27-10.92-1.87-1.25-4-2.68-6.17-4.94-1.48-1.54-2.32-3.02-3.14-4.45-1.14-2-2.13-3.73-4.72-5.39-.02-.02-.05-.03-.08-.05-.04-.02-.08-.05-.12-.07-2.47-1.54-7.1-2.34-9.98-2.21h0c-7.96.37-9.77,3.21-12.28,7.14-1.3,2.04-2.77,4.34-5.28,6.57-.99.88-2.08,1.51-3.13,2.13-.8.47-1.55.91-2.22,1.43-6.21,4.85-9.47,13.41-7.91,20.83,1.24,5.94,5.35,10.08,11.55,11.67,4.61,1.18,8.24.12,12.08-.99,2.69-.78,5.45-1.58,8.58-1.58Z"/>
    <path class="cls-3" d="M48.96,42.6c-1.9,0-3.86-.69-5.76-2.05-5.84-4.19-7.52-13.19-5.77-19.48,1.43-5.16,4.89-8.33,9.48-8.7h0c.93-.07,2.93.36,3.63.61.06.02.12.05.18.07l.06.02c5.27,2.11,8.51,6.87,8.89,13.07.41,6.52-2.48,13.01-6.85,15.43-1.23.68-2.53,1.02-3.86,1.02ZM47.17,14.49s-.06,0-.09,0h0c-5,.4-6.91,4.66-7.61,7.15-1.55,5.59-.12,13.54,4.96,17.19,2.56,1.83,5.1,2.15,7.36.9,3.64-2.01,6.11-7.79,5.76-13.44-.33-5.35-3.09-9.44-7.57-11.24l-.08-.03s-.07-.03-.11-.04c-.6-.22-2.08-.49-2.64-.49ZM47,13.43h0,0Z"/>
    <path class="cls-3" d="M98.4,60.19c-1.96,0-3.9-.73-5.68-2.18-4.22-3.42-5.8-9.73-4.03-16.08,1.61-5.8,5.63-9.82,10.48-10.49h0c1.34-.19,3.32.2,4.38.67l.04.02c.07.03.13.05.2.08,4.4,2.09,6.82,6.17,6.83,11.49,0,6.57-3.68,13.29-8.58,15.63-1.2.57-2.42.85-3.64.85ZM99.46,33.55c-4.79.66-7.65,5.07-8.73,8.96-1.26,4.54-.72,10.58,3.33,13.86,2.29,1.85,4.67,2.21,7.08,1.06,4.14-1.98,7.38-8,7.38-13.71,0-2.58-.74-7.26-5.62-9.58h-.03c-.05-.03-.1-.05-.15-.07-.86-.38-2.43-.63-3.24-.51h0Z"/>
    <path class="cls-3" d="M76.06,42.55c-1.8,0-3.61-.61-5.32-1.81-5.79-4.09-6.64-12.29-4.98-18.17,1.71-6.06,5.76-9.87,10.82-10.19h0c1.03-.06,2.73.32,3.66.72l.05.02c.06.02.13.05.19.08,4.71,2.17,7.39,6.49,7.57,12.18.2,6.64-3.22,13.58-7.97,16.13-1.3.7-2.66,1.05-4.02,1.05ZM76.72,14.49c-4.12.26-7.45,3.5-8.91,8.65-1.47,5.19-.79,12.36,4.16,15.86,2.38,1.68,4.77,1.89,7.12.63,4.02-2.16,7.03-8.4,6.85-14.2-.09-2.8-1.02-7.87-6.34-10.32-.01,0-.03-.01-.05-.02-.05-.02-.09-.04-.14-.05-.66-.28-2.04-.59-2.69-.55h0ZM76.65,13.43h0,0Z"/>
  </g>
</svg>