<?xml version="1.0" encoding="UTF-8" standalone="no"?><!DOCTYPE svg PUBLIC "-//W3C//DTD SVG 1.1//EN" "http://www.w3.org/Graphics/SVG/1.1/DTD/svg11.dtd"><svg width="100%" height="100%" viewBox="0 0 402 358" version="1.1" xmlns="http://www.w3.org/2000/svg" xmlns:xlink="http://www.w3.org/1999/xlink" xml:space="preserve" xmlns:serif="http://www.serif.com/" style="fill-rule:evenodd;clip-rule:evenodd;stroke-linejoin:round;stroke-miterlimit:2;"><g id="Layer_1-2"><path d="M51.875,199.25c-8,0 -16.333,-2.917 -24.458,-8.75c-20.792,-14.833 -32.042,-48.083 -25.584,-75.625c4.584,-19.583 17.5,-32.458 35.417,-35.375c4.958,-0.792 14.833,1.083 19.083,2.708l0.125,0c0.292,0.167 0.584,0.292 0.875,0.417c21.917,9.333 35.209,29.333 36.459,54.875c1.208,24.875 -9.625,48.625 -26.375,57.75c-4.917,2.667 -10.125,4 -15.542,4Z" style="fill:#97d1a9;fill-rule:nonzero;"/><path d="M268.333,357.125c-12.833,0 -23.583,-3.375 -34.041,-6.625c-9.209,-2.875 -17.875,-5.625 -28.125,-6.292c-13.542,-0.875 -25.25,2.5 -37.625,6.084c-16.417,4.75 -33.417,9.666 -54.959,4.208c-29.291,-7.458 -48.666,-27.125 -54.583,-55.333c-7.125,-34.084 7.75,-73.375 36.167,-95.542c3.208,-2.5 6.791,-4.583 10.208,-6.583c4.208,-2.459 8.167,-4.792 11.667,-7.875c9.583,-8.459 15.083,-17.125 20.416,-25.5c10.959,-17.209 20.459,-32.125 58.209,-33.834l0.208,4.417l-0.208,-4.417c13.583,-0.625 34.791,3.167 46.666,10.542l0.292,0.167c0.208,0.125 0.417,0.25 0.667,0.375c12.583,8.125 17.666,16.958 22.541,25.5c3.292,5.75 6.375,11.166 11.792,16.791c8.375,8.75 16.458,14.125 24.25,19.375c15.125,10.125 29.417,19.667 38.042,50.459c7.5,26.666 5.083,51.791 -6.875,70.75c-10.75,17.041 -28.625,28.208 -51.667,32.208c-4.625,0.792 -8.917,1.125 -13.042,1.125Z" style="fill:#97d1a9;fill-rule:nonzero;"/><path d="M144.958,125.958c-7.916,0 -16.083,-2.875 -24,-8.541c-24.333,-17.459 -31.333,-54.959 -24.041,-81.167c6,-21.458 20.375,-34.667 39.5,-36.25c3.875,-0.292 12.208,1.5 15.125,2.542c0.25,0.083 0.5,0.208 0.75,0.291l0.25,0.084c21.958,8.791 35.458,28.625 37.041,54.458c1.709,27.167 -10.333,54.208 -28.541,64.292c-5.125,2.833 -10.542,4.25 -16.084,4.25l0,0.041Z" style="fill:#97d1a9;fill-rule:nonzero;"/><path d="M350.958,199.25c-8.166,0 -16.25,-3.042 -23.666,-9.083c-17.584,-14.25 -24.167,-40.542 -16.792,-67c6.708,-24.167 23.458,-40.917 43.667,-43.709c5.583,-0.791 13.833,0.834 18.25,2.792l0.166,0.083c0.292,0.125 0.542,0.209 0.834,0.334c18.333,8.708 28.416,25.708 28.458,47.875c0,27.375 -15.333,55.375 -35.75,65.125c-5,2.375 -10.083,3.541 -15.167,3.541l0,0.042Z" style="fill:#97d1a9;fill-rule:nonzero;"/><path d="M257.875,125.75c-7.5,0 -15.042,-2.542 -22.167,-7.542c-24.125,-17.041 -27.666,-51.208 -20.75,-75.708c7.167,-25.25 24,-41.125 45.084,-42.5c4.291,-0.25 11.375,1.333 15.25,3l0.208,0.083c0.25,0.084 0.542,0.209 0.792,0.334c19.625,9.041 30.791,27.041 31.541,50.75c0.834,27.666 -13.416,56.583 -33.208,67.208c-5.417,2.917 -11.083,4.375 -16.75,4.375Z" style="fill:#97d1a9;fill-rule:nonzero;"/></g></svg>